<svg xmlns="http://www.w3.org/2000/svg" viewBox="0 0 256 256" role="img" aria-label="Minh Caro, AM, Hanoi Capital">
  <metadata>ARES-owned generated public-beta player image. Fictional seeded data. No scraped image source.</metadata>
  <defs>
    <linearGradient id="g" x1="0" y1="0" x2="1" y2="1"><stop offset="0" stop-color="#312E81"/><stop offset="1" stop-color="#020617"/></linearGradient>
    <linearGradient id="a" x1="0" y1="0" x2="1" y2="1"><stop offset="0" stop-color="#FACC15"/><stop offset="1" stop-color="#FFFFFF"/></linearGradient>
  </defs>
  <rect width="256" height="256" rx="34" fill="url(#g)"/>
  <circle cx="205" cy="44" r="64" fill="#FACC15" opacity=".14"/>
  <path d="M38 218c9-44 42-68 90-68s81 24 90 68" fill="#FACC15" opacity=".22"/>
  <circle cx="128" cy="101" r="47" fill="#F8FAFC" opacity=".95"/>
  <path d="M74 82c13-35 39-52 77-43 20 5 34 18 42 39-31-15-65-17-119 4Z" fill="#FACC15"/>
  <path d="M82 146c13 18 28 27 46 27s33-9 46-27c-14 8-29 12-46 12s-32-4-46-12Z" fill="#312E81" opacity=".2"/>
  <rect x="26" y="26" width="64" height="28" rx="14" fill="rgba(255,255,255,.12)" stroke="#FACC15" stroke-width="2"/>
  <text x="58" y="46" text-anchor="middle" font-family="Inter, Arial, sans-serif" font-size="14" font-weight="900" fill="#FACC15">AM</text>
  <text x="128" y="214" text-anchor="middle" font-family="Inter, Arial, sans-serif" font-size="42" font-weight="900" fill="#FACC15">MC</text>
  <text x="128" y="235" text-anchor="middle" font-family="Inter, Arial, sans-serif" font-size="11" font-weight="800" fill="#E5E7EB">Hanoi Capital</text>
</svg>
